<mxfile host="app.diagrams.net" modified="2023-08-06T11:38:43.320Z" agent="Mozilla/5.0 (Windows NT 10.0; Win64; x64) AppleWebKit/537.36 (KHTML, like Gecko) Chrome/115.0.0.0 Safari/537.36" version="21.6.6" etag="NaVtEWi2_ydNst5JxLJ9" type="github">
  <diagram name="PÃ¡gina-1" id="U6k8EklDL8r_8xaAi0Mo">
    <mxGraphModel>
      <root>
        <mxCell id="0" />
        <mxCell id="1" parent="0" />
      </root>
    </mxGraphModel>
  </diagram>
</mxfile>
